<?xml version="1.0" encoding="UTF-8"?>
<svg xmlns="http://www.w3.org/2000/svg" style="display: none;">

    <symbol id="chevron" viewBox="0 96 960 960">
        <path d="M479.96 691.5q-7.44 0-13.95-2.5-6.51-2.5-12.01-8L271.36 498.36Q260.5 487.5 261 472.5t11.5-26q11-11 26.5-11t26.401 10.901L480 601l155.598-155.598Q646.5 434.5 661.5 435q15 .5 26 11.5t11 26.5q0 15.5-10.859 26.359L506 681q-5.58 5.5-12.09 8t-13.95 2.5Z"/>
    </symbol>

    <symbol id="check" viewBox="0 96 960 960">
        <path d="M382.96 794.5q-7.44 0-13.95-2.5-6.51-2.5-12.01-8L188 615q-10.5-10.5-10-26.5t10.911-26.5q10.41-10.5 26.5-10.5Q231.5 551.5 242 562l141 141 335-335q10.283-10.5 26.641-10.5Q761 357.5 771.5 368t10.5 26.859q0 16.358-10.5 26.641L409 784q-5.58 5.5-12.09 8t-13.95 2.5Z"/>
    </symbol>

    <symbol id="plus" viewBox="0 96 960 960">
        <path d="M480 848q-15.5 0-26.5-11t-11-26.5V613H245q-15.5 0-26.5-11t-11-26.5q0-15.5 11-26.5t26.5-11h197.5V340.5q0-15.5 11-26.5t26.5-11q15.5 0 26.5 11t11 26.5V538H715q15.5 0 26.5 11t11 26.5q0 15.5-11 26.5T715 613H517.5v197.5q0 15.5-11 26.5T480 848Z"/>
    </symbol>

    <symbol id="cross" viewBox="0 96 960 960">
        <path d="M480 629 286 823q-11 11-26.5 11T233 823q-11-11-11-26.5t11-26.5l194.5-194.5-195-195Q222 370 222 354.5t11-26.5q11-11 26.25-11t26.25 11L480 523l194-194q11-11 26.5-11t26.5 11q11 11 11 26.5T727 382L532.5 576.5l195 195q10.5 10.5 10.75 25.75T727.5 823.5q-11 11-26.25 11t-26.25-11L480 629Z"/>
    </symbol>

    <symbol id="trash" viewBox="0 96 960 960">
        <path d="M283 926q-30.938 0-52.969-22.031Q208 881.938 208 851V339h-1.5q-15.5 0-26.5-11t-11-26.5q0-15.5 11-26.5t26.5-11H362q0-16 10.638-27 10.637-11 26.362-11h163q15.725 0 26.362 10.925Q599 247.85 599 264h155.5q15.5 0 26.5 11t11 26.5q0 15.5-11 26.5t-26.5 11H753v512q0 30.938-22.031 52.969Q708.938 926 678 926H283Zm0-587v512h395V339H283Zm82 396q0 15.5 11 26.5t26.5 11q15.5 0 26.5-11t11-26.5V455q0-15.5-11-26.5t-26.5-11q-15.5 0-26.5 11T365 455v280Zm156 0q0 15.5 11 26.5t26.5 11q15.5 0 26.5-11t11-26.5V455q0-15.5-11-26.5t-26.5-11q-15.5 0-26.5 11T521 455v280ZM283 339v512-512Z"/>
    </symbol>

    <symbol id="pen" viewBox="0 96 960 960">
        <path d="M206 849.5h52l347-347-52-52-347 347v52ZM765 449 606 291l53-53q21.594-21.5 53.047-21.5 31.453 0 52.987 21.647l52.432 52.706Q839 312.5 839.5 343.25t-21.062 52.312L765 449ZM168 924.5q-15.725 0-26.363-10.638Q131 903.225 131 887.5V781.037q0-7.537 2.75-14.323 2.75-6.785 8.25-12.214L552.5 344l159 159L301 913.5q-5.483 5.5-12.336 8.25-6.854 2.75-14.164 2.75H168Zm411-448-26-26 52 52-26-26Z"/>
    </symbol>

    <symbol id="disk" viewBox="0 96 960 960">
        <path d="M204 927q-30.938 0-52.969-22.031Q129 882.938 129 852V300q0-30.938 22.031-52.969Q173.062 225 204 225h440q15.143 0 28.866 5.739Q686.589 236.478 697 247l112 112q10.522 10.411 16.261 24.134Q831 396.857 831 412v440q0 30.938-22.031 52.969Q786.938 927 756 927H204Zm552-515L644 300H204v552h552V412ZM480 809q47.5 0 80.75-33.25T594 695q0-47.5-33.25-80.75T480 581q-47.5 0-80.75 33.25T366 695q0 47.5 33.25 80.75T480 809ZM282 495h277q15.725 0 26.362-10.638Q596 473.725 596 458v-80q0-15.725-10.638-26.362Q574.725 341 559 341H282q-15.725 0-26.363 10.638Q245 362.275 245 378v80q0 15.725 10.637 26.362Q266.275 495 282 495Zm-78-83v440-552 112Z"/>
    </symbol>

    <symbol id="folder" viewBox="0 96 960 960">
        <path d="M165 888q-32 0-53.5-21.5T90 812.786V344.214Q90 312 111.5 290.5T165 269h209q15 0 28.594 5.739Q416.188 280.478 426.5 291l53.5 53h315q31.5 0 52.75 22T870 419H449l-75-75H165v461l77.5-257.5q7.481-24.404 27.584-38.952Q290.188 494 314.5 494h521q38 0 60.5 30.25t11.5 66.25l-73 242.5q-8 25-28.5 40t-46 15H165Zm76-75h521l73.5-244h-521L241 813Zm0 0 73.5-244L241 813Zm-76-319V344v150Z"/>
    </symbol>

    <symbol id="file" viewBox="0 96 960 960">
        <path d="M362 808h236.5q15.5 0 26.5-11t11-26.5q0-15.5-11-26.5t-26.5-11H362q-15.5 0-26.5 11t-11 26.5q0 15.5 11 26.5t26.5 11Zm0-158h236.5q15.5 0 26.5-11t11-26.5q0-15.5-11-26.5t-26.5-11H362q-15.5 0-26.5 11t-11 26.5q0 15.5 11 26.5t26.5 11ZM244 966q-30.938 0-52.969-22.031Q169 921.938 169 891V261q0-30.938 22.031-52.969Q213.062 186 244 186h285q14.933 0 28.467 5.5Q571 197 581.618 207.593l187.264 186.814Q779.5 405 785.25 418.694 791 432.389 791 447.5V891q0 30.938-22.031 52.969Q746.938 966 716 966H244Zm279-549.5V261H244v630h472V454H560.5q-15.5 0-26.5-11t-11-26.5ZM244 261v193-193 630-630Z"/>
    </symbol>

</svg>
