<svg viewBox="0 0 96 96" fill="none" xmlns="http://www.w3.org/2000/svg">
<path d="M6.39153 64.1749C5.3702 66.2176 4.5231 67.8816 3.13115 69.8815C5.28335 71.4445 6.17138 71.777 9.36969 73.1762C10.6536 73.738 11.6657 74.6368 12.7656 75.0672C13.8177 75.4498 16.1319 76.4756 16.8762 76.7237C17.6205 76.9718 21.015 78.4358 22.0298 78.8097C23.0447 79.1836 23.928 79.3192 25.5458 79.7834C27.1636 80.2477 28.0661 80.3605 29.1176 80.5994C30.4463 80.7948 31.3668 81.4756 32.8451 81.568C35.236 81.7175 38.0007 82.5937 40.3817 82.5937C41.7179 82.5937 43.7448 83.1184 45.1044 83.1184C46.3681 83.1184 47.8075 82.9399 49.0692 83.0601C53.7133 83.5024 57.7188 82.5347 62.3131 81.655C63.8843 81.3541 65.3967 81.1298 66.9445 80.7429C68.0027 80.4784 69.4321 80.155 70.1071 79.9966C71.7556 79.5015 73.7221 78.8026 75.2864 78.2338C77.1316 77.5628 78.8774 77.1623 80.4987 76.1306C82.1541 75.0771 83.4854 74.5598 85.3452 73.8445C86.49 73.4042 87.7094 72.5244 88.8618 72.0123C90.0437 71.4869 90.9044 70.9132 91.9292 70.177C92.3371 69.8586 92.7012 69.5572 92.8545 69.4706C92.9778 69.4009 90.7115 66.2532 90.3623 65.8263C89.0871 64.2678 88.2669 62.4365 87.1286 60.7922C86.2591 59.5363 85.4079 58.267 84.6529 56.9188C83.6634 55.1518 82.5752 53.6655 81.3363 52.0623C80.7491 51.3024 80.1227 50.6515 79.6543 49.7999C79.2703 49.1018 78.9464 48.2273 78.375 47.656C77.3656 46.6465 76.0912 45.2869 75.3782 44.0195C73.504 40.6875 71.8448 38.5178 70.1335 35.0952C68.6763 32.1809 66.6981 29.9515 64.4198 27.5855C63.0403 26.153 61.4432 22.7689 60.0579 21.3564C58.6391 19.9098 56.6245 16.7803 55.0364 14.9296C51.1589 10.3673 49.8476 9.03497 48.6937 9.00001C47.003 9.09393 46.3806 9.62395 45.344 10.7757C43.0303 13.3465 41.5906 15.0399 39.6427 17.9617C38.7621 19.2825 35.916 21.7794 34.9334 23.0429C33.5153 24.8661 31.912 26.7186 30.4939 28.5306C28.2137 31.4442 26.9023 34.0958 24.4686 36.8847C22.9286 38.6716 22.3984 40.0509 21.1016 41.7762C20.2064 42.9735 19.7496 44.2965 18.8154 45.5074C16.8413 48.0665 15.3434 50.6742 13.5904 53.4133C12.6479 54.8859 11.4845 56.3998 10.5202 57.6354C9.73606 58.8417 8.89282 59.9257 8.10929 61.1915C7.65725 62.2161 6.89429 63.1694 6.39153 64.1749Z" fill="#FF5468"/>
<path d="M4.53184 67.2574C3.27724 69.5441 0.597588 72.7993 1.05112 73.1694C3.30316 74.8048 4.23238 75.1527 7.57906 76.6169C8.92255 77.2047 9.98153 78.1452 11.1325 78.5956C12.2334 78.9959 14.655 80.0693 15.4338 80.3289C16.2127 80.5886 19.7646 82.1205 20.8265 82.5117C21.8884 82.9029 22.8128 83.0448 24.5056 83.5306C26.1984 84.0164 27.1428 84.1344 28.243 84.3844C29.6334 84.5889 30.5966 85.3013 32.1435 85.398C34.6452 85.5543 37.5382 86.4712 40.0297 86.4712C41.4279 86.4712 43.5488 87.0203 44.9715 87.0203C46.2938 87.0203 47.8 86.8335 49.1202 86.9593C53.9798 87.4221 58.171 86.4095 62.9784 85.4889C64.6226 85.1741 66.2051 84.9395 67.8247 84.5346C68.932 84.2578 70.4277 83.9194 71.1341 83.7537C72.859 83.2356 74.9167 82.5042 76.5536 81.909C78.4844 81.2069 80.3111 80.7879 82.0076 79.7083C83.7399 78.6059 85.1329 78.0646 87.079 77.3161C88.2769 76.8554 89.5529 75.9348 90.7587 75.3989C91.9955 74.8492 92.8961 74.2489 93.9684 73.4785C94.3952 73.1453 94.834 72.7353 94.9943 72.6446C95.1234 72.5717 93.067 69.713 92.2576 68.4422C91.1532 66.778 91.5617 67.3756 90.2076 65.6055C90.0017 65.9585 89.4415 65.8293 89.1789 66.0467C88.8891 66.2911 88.455 66.6166 88.1383 66.7384C87.5047 66.9821 86.9993 67.531 86.3898 67.8019C84.7884 68.5137 83.34 69.8193 81.649 70.4697C79.495 71.2982 77.4622 72.5591 75.1958 73.1556C73.0873 73.7104 70.8492 74.4865 68.8598 75.3817C65.4709 76.6504 56.8207 78.6601 52.9701 78.7075C50.2262 78.7075 47.4484 78.2208 44.6963 78.2208C41.9724 78.2208 39.24 77.557 36.6896 76.9802C34.1696 76.2818 32.3301 76.064 29.9189 75.3406C28.746 74.9888 26.6663 74.8539 25.5169 74.5255C24.3641 74.1962 21.4522 73.2539 20.3644 72.7387C16.9145 71.1045 15.2487 70.2501 11.7542 68.7212C9.3975 67.6902 7.13484 65.9999 5.92811 65.0113C5.22394 66.1268 5.13892 66.2254 4.53184 67.2574Z" fill="#5FAD41"/>
<path d="M8.10521 61.1391C6.97363 63.1438 5.43747 65.6901 5.27626 66.0286C7.42847 67.5916 6.58743 66.9107 8.94246 68.1104C10.4532 68.7769 11.6657 69.5197 12.7656 69.9501C13.8177 70.3327 15.2484 71.2755 17.5714 72.2306C18.3158 72.4787 21.015 73.3188 22.0298 73.6926C23.0447 74.0665 23.9281 74.2021 25.5458 74.6664C27.1636 75.1307 28.5456 75.9674 29.597 76.2064C32.0282 76.8536 34.6395 77.657 38.6045 78.2272C40.2072 78.361 43.7612 78.9007 45.1208 78.9007C46.3844 78.9007 48.7738 78.8612 51.0694 78.9647L51.2273 78.9603C54.8333 78.8601 56.3661 78.8176 60.8949 77.9504C62.4544 77.6517 65.3691 76.9231 66.9259 76.5339L66.9608 76.5251C68.019 76.2606 70.7008 75.3501 71.3758 75.1917C74.7274 74.185 75.8162 73.9536 78.9143 72.1153C80.5698 71.0618 83.4854 69.4427 85.3452 68.7274C87.5937 67.8626 87.8121 68.1922 89.7681 66.7869C90.176 66.4685 90.4175 66.1686 90.5707 66.082C90.2309 65.7156 88.5406 62.8482 88.1914 62.4214C87.1494 60.6462 86.757 60.1465 86.0441 59.2004C85.8473 59.5378 85.3755 59.639 85.1246 59.8467C84.8477 60.0804 84.4991 60.2292 84.1965 60.3456C82.0024 61.1895 82.373 61.3318 80.1559 62.1845C78.0975 62.9762 76.1548 64.1813 73.9888 64.7513C71.9738 65.2816 69.835 66.0232 67.9337 66.8788C64.6951 68.0912 56.4283 70.0118 52.7484 70.0571C50.1262 70.0571 47.4716 69.592 44.8414 69.592C42.2383 69.592 39.6271 68.9576 37.1897 68.4063C34.7814 67.739 33.0234 67.5308 30.7191 66.8395C29.5983 66.5032 27.6107 66.3744 26.5123 66.0605C25.4106 65.7458 22.6278 64.8453 21.5883 64.3529C18.2913 62.7912 16.6993 61.9746 13.3598 60.5135C11.1075 59.5282 11.1863 59.2829 10.0331 58.3381C9.45271 59.1361 8.56841 60.2024 8.10521 61.1391Z" fill="#F6F0DF"/>
<path d="M25.9953 51.3651C25.6328 51.3651 24.9307 51.828 24.3058 52.0595C23.704 52.3141 22.9634 52.7075 22.9948 53.6105C22.9948 54.9161 23.4577 55.7955 24.9682 55.3235C26.0413 54.9881 26.1342 54.1656 26.3194 52.6844C26.3425 52.2215 26.5966 51.3651 25.9953 51.3651Z" fill="black" stroke="black" stroke-linecap="round"/>
<path d="M32.3947 59.1032C32.3947 57.9279 33.647 56.462 33.9348 56.462C34.2377 56.5074 34.889 59.2337 33.7858 60.1043C33.0479 60.8422 32.3947 59.6141 32.3947 59.1032Z" fill="black" stroke="black" stroke-linecap="round"/>
<path d="M43.4171 59.3723C42.6062 58.2441 44.2855 55.8906 44.5265 55.9468C45.0732 56.0933 45.1564 57.3626 45.3833 57.8805C45.6994 58.602 45.8143 59.3049 45.3716 60.1544C45.0504 60.7706 43.8656 60.1681 43.4171 59.3723Z" fill="black" stroke="black" stroke-linecap="round"/>
<path d="M54.3032 59.7737C54.2274 58.5823 54.8048 56.9299 55.0164 56.9184C55.3325 56.8985 56.1945 58.9189 56.4134 59.534C56.6044 60.0708 56.2141 61.3811 55.5754 61.5314C54.8625 61.6993 54.3342 60.26 54.3032 59.7737Z" fill="black" stroke="black" stroke-linecap="round"/>
<path d="M64.4474 56.4486C64.1538 55.3231 64.5207 53.4637 64.7006 53.4137C65.0345 53.3903 66.0287 55.2992 66.3635 55.7178C66.6508 56.0769 66.6145 57.4517 66.1432 57.7013C65.4812 58.0517 64.6186 57.0358 64.4474 56.4486Z" fill="black" stroke="black" stroke-linecap="round"/>
<path d="M71.939 54.5094C71.0967 54.3362 70.8388 52.6153 70.972 52.4557C71.1111 52.3151 73.0938 53.249 73.0226 53.7284C72.9305 54.3487 72.5467 54.6344 71.939 54.5094Z" stroke="black" stroke-linecap="round"/>
</svg>
